<?xml version="1.0" encoding="UTF-8"?>
<svg width="48px" height="48px" viewBox="0 0 48 48" version="1.1" xmlns="http://www.w3.org/2000/svg" xmlns:xlink="http://www.w3.org/1999/xlink">
    <!-- Generator: Sketch 60.1 (88133) - https://sketch.com -->
    <title>审核中</title>
    <desc>Created with Sketch.</desc>
    <g id="页面-1" stroke="none" stroke-width="1" fill="none" fill-rule="evenodd">
        <g id="处理中" fill-rule="nonzero">
            <rect id="矩形" fill="#000000" opacity="0" x="0" y="0" width="47.9531707" height="47.9531707"></rect>
            <path d="M23.9785834,0 C37.2196527,0 47.9551688,10.7355161 47.9551688,23.9765854 C47.9551688,37.2176546 37.2196527,47.9531707 23.9785834,47.9531707 C10.7375142,47.9531707 0.00199806439,37.2176546 0.00199806439,23.9765854 C0.00199806439,10.7355161 10.7375142,0 23.9785834,0 Z M23.9785834,11.9882927 C22.8750916,11.9882927 21.9805346,12.8828496 21.9805346,13.9863415 L21.9805346,25.9746342 L21.994521,26.2084059 C22.0584535,26.7515953 22.3422624,27.2448307 22.7797542,27.5730732 L30.7719493,33.5672195 L30.9817444,33.7050849 C31.8564794,34.2033381 32.9652812,33.9730155 33.5692176,33.1676098 L33.7070829,32.9578146 C34.2053361,32.0830796 33.9750136,30.9742778 33.1696078,30.3703414 L25.9746342,24.9756097 L25.9766322,13.9863415 L25.9626459,13.7525698 C25.8441295,12.7465664 24.9915439,11.9882927 23.9785834,11.9882927 Z" id="形状" fill="#8B9DB6"></path>
        </g>
    </g>
</svg>